<mxfile host="Electron" agent="Mozilla/5.0 (Windows NT 10.0; Win64; x64) AppleWebKit/537.36 (KHTML, like Gecko) draw.io/24.7.5 Chrome/126.0.6478.183 Electron/31.3.0 Safari/537.36" version="24.7.5">
  <diagram name="PÃ¡gina-1" id="FQRWIvZtP43-ndZWOlBP">
    <mxGraphModel dx="1434" dy="2013" grid="1" gridSize="10" guides="1" tooltips="1" connect="1" arrows="1" fold="1" page="1" pageScale="1" pageWidth="827" pageHeight="1169" math="0" shadow="0">
      <root>
        <mxCell id="0" />
        <mxCell id="1" parent="0" />
        <mxCell id="JfV7Oqde7IpRAIplU1kL-1" value="isWaterMax" style="rhombus;whiteSpace=wrap;html=1;" vertex="1" parent="1">
          <mxGeometry x="50" y="375" width="80" height="80" as="geometry" />
        </mxCell>
        <mxCell id="JfV7Oqde7IpRAIplU1kL-3" value="isWaterMin" style="rhombus;whiteSpace=wrap;html=1;" vertex="1" parent="1">
          <mxGeometry x="334" y="375" width="80" height="80" as="geometry" />
        </mxCell>
        <mxCell id="JfV7Oqde7IpRAIplU1kL-4" value="isAlarm" style="rhombus;whiteSpace=wrap;html=1;" vertex="1" parent="1">
          <mxGeometry x="180" y="375" width="80" height="80" as="geometry" />
        </mxCell>
        <mxCell id="JfV7Oqde7IpRAIplU1kL-5" value="isManualMode" style="rhombus;whiteSpace=wrap;html=1;" vertex="1" parent="1">
          <mxGeometry x="560" y="370" width="90" height="90" as="geometry" />
        </mxCell>
        <mxCell id="JfV7Oqde7IpRAIplU1kL-12" style="edgeStyle=orthogonalEdgeStyle;rounded=0;orthogonalLoop=1;jettySize=auto;html=1;entryX=0;entryY=0.5;entryDx=0;entryDy=0;entryPerimeter=0;fillColor=#60a917;strokeColor=#2D7600;" edge="1" parent="1" source="JfV7Oqde7IpRAIplU1kL-6" target="JfV7Oqde7IpRAIplU1kL-14">
          <mxGeometry relative="1" as="geometry">
            <mxPoint x="330" y="610" as="targetPoint" />
            <Array as="points">
              <mxPoint x="480" y="500" />
              <mxPoint x="330" y="500" />
            </Array>
          </mxGeometry>
        </mxCell>
        <mxCell id="JfV7Oqde7IpRAIplU1kL-13" value="Yes" style="edgeLabel;html=1;align=center;verticalAlign=middle;resizable=0;points=[];" vertex="1" connectable="0" parent="JfV7Oqde7IpRAIplU1kL-12">
          <mxGeometry x="-0.1636" relative="1" as="geometry">
            <mxPoint x="45" y="-10" as="offset" />
          </mxGeometry>
        </mxCell>
        <mxCell id="JfV7Oqde7IpRAIplU1kL-6" value="isAutoMode" style="rhombus;whiteSpace=wrap;html=1;" vertex="1" parent="1">
          <mxGeometry x="440" y="375" width="80" height="80" as="geometry" />
        </mxCell>
        <mxCell id="JfV7Oqde7IpRAIplU1kL-8" value="BMB" style="ellipse;whiteSpace=wrap;html=1;aspect=fixed;" vertex="1" parent="1">
          <mxGeometry x="290" y="770" width="80" height="80" as="geometry" />
        </mxCell>
        <mxCell id="JfV7Oqde7IpRAIplU1kL-9" value="RAQ" style="ellipse;whiteSpace=wrap;html=1;aspect=fixed;" vertex="1" parent="1">
          <mxGeometry x="334" y="-90" width="80" height="80" as="geometry" />
        </mxCell>
        <mxCell id="JfV7Oqde7IpRAIplU1kL-10" value="V1" style="ellipse;whiteSpace=wrap;html=1;aspect=fixed;" vertex="1" parent="1">
          <mxGeometry x="590" y="750" width="80" height="80" as="geometry" />
        </mxCell>
        <mxCell id="JfV7Oqde7IpRAIplU1kL-11" value="V2" style="ellipse;whiteSpace=wrap;html=1;aspect=fixed;" vertex="1" parent="1">
          <mxGeometry x="430" y="750" width="80" height="80" as="geometry" />
        </mxCell>
        <mxCell id="JfV7Oqde7IpRAIplU1kL-20" style="edgeStyle=orthogonalEdgeStyle;rounded=0;orthogonalLoop=1;jettySize=auto;html=1;entryX=0.5;entryY=0;entryDx=0;entryDy=0;" edge="1" parent="1" source="JfV7Oqde7IpRAIplU1kL-14" target="JfV7Oqde7IpRAIplU1kL-8">
          <mxGeometry relative="1" as="geometry" />
        </mxCell>
        <mxCell id="JfV7Oqde7IpRAIplU1kL-14" value="And" style="shape=or;whiteSpace=wrap;html=1;rotation=90;" vertex="1" parent="1">
          <mxGeometry x="300" y="670" width="60" height="80" as="geometry" />
        </mxCell>
        <mxCell id="JfV7Oqde7IpRAIplU1kL-15" value="" style="shape=xor;whiteSpace=wrap;html=1;rotation=-90;" vertex="1" parent="1">
          <mxGeometry x="130" y="150" width="60" height="80" as="geometry" />
        </mxCell>
        <mxCell id="JfV7Oqde7IpRAIplU1kL-16" style="edgeStyle=orthogonalEdgeStyle;rounded=0;orthogonalLoop=1;jettySize=auto;html=1;entryX=0;entryY=0.25;entryDx=0;entryDy=0;entryPerimeter=0;fillColor=#60a917;strokeColor=#2D7600;" edge="1" parent="1" source="JfV7Oqde7IpRAIplU1kL-5" target="JfV7Oqde7IpRAIplU1kL-14">
          <mxGeometry relative="1" as="geometry">
            <mxPoint x="360" y="610" as="targetPoint" />
            <Array as="points">
              <mxPoint x="605" y="540" />
              <mxPoint x="350" y="540" />
            </Array>
          </mxGeometry>
        </mxCell>
        <mxCell id="JfV7Oqde7IpRAIplU1kL-17" value="Yes" style="edgeLabel;html=1;align=center;verticalAlign=middle;resizable=0;points=[];" vertex="1" connectable="0" parent="JfV7Oqde7IpRAIplU1kL-16">
          <mxGeometry x="0.35" y="1" relative="1" as="geometry">
            <mxPoint x="45" y="-11" as="offset" />
          </mxGeometry>
        </mxCell>
        <mxCell id="JfV7Oqde7IpRAIplU1kL-18" style="edgeStyle=orthogonalEdgeStyle;rounded=0;orthogonalLoop=1;jettySize=auto;html=1;entryX=0;entryY=0.75;entryDx=0;entryDy=0;entryPerimeter=0;exitX=1;exitY=0.5;exitDx=0;exitDy=0;fillColor=#e51400;strokeColor=#B20000;" edge="1" parent="1" source="JfV7Oqde7IpRAIplU1kL-1" target="JfV7Oqde7IpRAIplU1kL-14">
          <mxGeometry relative="1" as="geometry">
            <mxPoint x="310" y="610" as="targetPoint" />
            <Array as="points">
              <mxPoint x="160" y="415" />
              <mxPoint x="160" y="510" />
              <mxPoint x="310" y="510" />
            </Array>
          </mxGeometry>
        </mxCell>
        <mxCell id="JfV7Oqde7IpRAIplU1kL-19" value="No" style="edgeLabel;html=1;align=center;verticalAlign=middle;resizable=0;points=[];" vertex="1" connectable="0" parent="JfV7Oqde7IpRAIplU1kL-18">
          <mxGeometry x="-0.4383" y="-2" relative="1" as="geometry">
            <mxPoint x="10" y="-42" as="offset" />
          </mxGeometry>
        </mxCell>
        <mxCell id="JfV7Oqde7IpRAIplU1kL-21" value="Or" style="shape=xor;whiteSpace=wrap;html=1;rotation=90;" vertex="1" parent="1">
          <mxGeometry x="210" y="570" width="60" height="80" as="geometry" />
        </mxCell>
        <mxCell id="JfV7Oqde7IpRAIplU1kL-22" style="edgeStyle=orthogonalEdgeStyle;rounded=0;orthogonalLoop=1;jettySize=auto;html=1;entryX=0.175;entryY=0.75;entryDx=0;entryDy=0;entryPerimeter=0;fillColor=#60a917;strokeColor=#2D7600;" edge="1" parent="1" source="JfV7Oqde7IpRAIplU1kL-4" target="JfV7Oqde7IpRAIplU1kL-21">
          <mxGeometry relative="1" as="geometry" />
        </mxCell>
        <mxCell id="JfV7Oqde7IpRAIplU1kL-23" value="Yes" style="edgeLabel;html=1;align=center;verticalAlign=middle;resizable=0;points=[];" vertex="1" connectable="0" parent="JfV7Oqde7IpRAIplU1kL-22">
          <mxGeometry x="0.0058" y="2" relative="1" as="geometry">
            <mxPoint x="8" y="-51" as="offset" />
          </mxGeometry>
        </mxCell>
        <mxCell id="JfV7Oqde7IpRAIplU1kL-24" style="edgeStyle=orthogonalEdgeStyle;rounded=0;orthogonalLoop=1;jettySize=auto;html=1;entryX=0.175;entryY=0.25;entryDx=0;entryDy=0;entryPerimeter=0;fillColor=#60a917;strokeColor=#2D7600;" edge="1" parent="1" source="JfV7Oqde7IpRAIplU1kL-3" target="JfV7Oqde7IpRAIplU1kL-21">
          <mxGeometry relative="1" as="geometry">
            <Array as="points">
              <mxPoint x="374" y="470" />
              <mxPoint x="260" y="470" />
            </Array>
          </mxGeometry>
        </mxCell>
        <mxCell id="JfV7Oqde7IpRAIplU1kL-25" value="Yes" style="edgeLabel;html=1;align=center;verticalAlign=middle;resizable=0;points=[];" vertex="1" connectable="0" parent="JfV7Oqde7IpRAIplU1kL-24">
          <mxGeometry x="0.1611" y="-2" relative="1" as="geometry">
            <mxPoint x="52" y="-28" as="offset" />
          </mxGeometry>
        </mxCell>
        <mxCell id="JfV7Oqde7IpRAIplU1kL-26" style="edgeStyle=orthogonalEdgeStyle;rounded=0;orthogonalLoop=1;jettySize=auto;html=1;entryX=0.006;entryY=0.927;entryDx=0;entryDy=0;entryPerimeter=0;" edge="1" parent="1" source="JfV7Oqde7IpRAIplU1kL-21" target="JfV7Oqde7IpRAIplU1kL-14">
          <mxGeometry relative="1" as="geometry">
            <Array as="points">
              <mxPoint x="240" y="660" />
              <mxPoint x="296" y="660" />
            </Array>
          </mxGeometry>
        </mxCell>
        <mxCell id="JfV7Oqde7IpRAIplU1kL-28" style="edgeStyle=orthogonalEdgeStyle;rounded=0;orthogonalLoop=1;jettySize=auto;html=1;entryX=0.5;entryY=1;entryDx=0;entryDy=0;" edge="1" parent="1" source="JfV7Oqde7IpRAIplU1kL-27" target="JfV7Oqde7IpRAIplU1kL-9">
          <mxGeometry relative="1" as="geometry" />
        </mxCell>
        <mxCell id="JfV7Oqde7IpRAIplU1kL-27" value="And" style="shape=or;whiteSpace=wrap;html=1;rotation=-90;" vertex="1" parent="1">
          <mxGeometry x="344" y="30" width="60" height="80" as="geometry" />
        </mxCell>
        <mxCell id="JfV7Oqde7IpRAIplU1kL-29" style="edgeStyle=orthogonalEdgeStyle;rounded=0;orthogonalLoop=1;jettySize=auto;html=1;entryX=0;entryY=0.75;entryDx=0;entryDy=0;entryPerimeter=0;fillColor=#60a917;strokeColor=#2D7600;" edge="1" parent="1" source="JfV7Oqde7IpRAIplU1kL-6" target="JfV7Oqde7IpRAIplU1kL-27">
          <mxGeometry relative="1" as="geometry">
            <Array as="points">
              <mxPoint x="480" y="320" />
              <mxPoint x="394" y="320" />
            </Array>
          </mxGeometry>
        </mxCell>
        <mxCell id="JfV7Oqde7IpRAIplU1kL-30" value="isTimer" style="rhombus;whiteSpace=wrap;html=1;" vertex="1" parent="1">
          <mxGeometry x="680" y="370" width="90" height="90" as="geometry" />
        </mxCell>
        <mxCell id="JfV7Oqde7IpRAIplU1kL-31" style="edgeStyle=orthogonalEdgeStyle;rounded=0;orthogonalLoop=1;jettySize=auto;html=1;entryX=0;entryY=0.75;entryDx=0;entryDy=0;entryPerimeter=0;fillColor=#60a917;strokeColor=#2D7600;" edge="1" parent="1" source="JfV7Oqde7IpRAIplU1kL-30" target="JfV7Oqde7IpRAIplU1kL-27">
          <mxGeometry relative="1" as="geometry">
            <Array as="points">
              <mxPoint x="725" y="250" />
              <mxPoint x="394" y="250" />
            </Array>
          </mxGeometry>
        </mxCell>
        <mxCell id="JfV7Oqde7IpRAIplU1kL-32" style="edgeStyle=orthogonalEdgeStyle;rounded=0;orthogonalLoop=1;jettySize=auto;html=1;entryX=0;entryY=0.5;entryDx=0;entryDy=0;entryPerimeter=0;fillColor=#60a917;strokeColor=#2D7600;" edge="1" parent="1" source="JfV7Oqde7IpRAIplU1kL-5" target="JfV7Oqde7IpRAIplU1kL-27">
          <mxGeometry relative="1" as="geometry">
            <Array as="points">
              <mxPoint x="605" y="290" />
              <mxPoint x="374" y="290" />
            </Array>
          </mxGeometry>
        </mxCell>
        <mxCell id="JfV7Oqde7IpRAIplU1kL-33" style="edgeStyle=orthogonalEdgeStyle;rounded=0;orthogonalLoop=1;jettySize=auto;html=1;entryX=0;entryY=0.25;entryDx=0;entryDy=0;entryPerimeter=0;fillColor=#e51400;strokeColor=#B20000;" edge="1" parent="1" source="JfV7Oqde7IpRAIplU1kL-4" target="JfV7Oqde7IpRAIplU1kL-27">
          <mxGeometry relative="1" as="geometry">
            <Array as="points">
              <mxPoint x="220" y="270" />
              <mxPoint x="354" y="270" />
            </Array>
          </mxGeometry>
        </mxCell>
        <mxCell id="JfV7Oqde7IpRAIplU1kL-34" style="edgeStyle=orthogonalEdgeStyle;rounded=0;orthogonalLoop=1;jettySize=auto;html=1;entryX=0.175;entryY=0.25;entryDx=0;entryDy=0;entryPerimeter=0;fillColor=#60a917;strokeColor=#2D7600;" edge="1" parent="1" source="JfV7Oqde7IpRAIplU1kL-1" target="JfV7Oqde7IpRAIplU1kL-15">
          <mxGeometry relative="1" as="geometry" />
        </mxCell>
        <mxCell id="JfV7Oqde7IpRAIplU1kL-35" style="edgeStyle=orthogonalEdgeStyle;rounded=0;orthogonalLoop=1;jettySize=auto;html=1;entryX=0.25;entryY=0.5;entryDx=0;entryDy=0;entryPerimeter=0;fillColor=#60a917;strokeColor=#2D7600;" edge="1" parent="1" source="JfV7Oqde7IpRAIplU1kL-3" target="JfV7Oqde7IpRAIplU1kL-15">
          <mxGeometry relative="1" as="geometry">
            <Array as="points">
              <mxPoint x="374" y="350" />
              <mxPoint x="160" y="350" />
            </Array>
          </mxGeometry>
        </mxCell>
        <mxCell id="JfV7Oqde7IpRAIplU1kL-36" style="edgeStyle=orthogonalEdgeStyle;rounded=0;orthogonalLoop=1;jettySize=auto;html=1;entryX=0.175;entryY=0.75;entryDx=0;entryDy=0;entryPerimeter=0;fillColor=#e51400;strokeColor=#B20000;" edge="1" parent="1" source="JfV7Oqde7IpRAIplU1kL-4" target="JfV7Oqde7IpRAIplU1kL-15">
          <mxGeometry relative="1" as="geometry">
            <Array as="points">
              <mxPoint x="220" y="270" />
              <mxPoint x="180" y="270" />
            </Array>
          </mxGeometry>
        </mxCell>
        <mxCell id="JfV7Oqde7IpRAIplU1kL-37" style="edgeStyle=orthogonalEdgeStyle;rounded=0;orthogonalLoop=1;jettySize=auto;html=1;entryX=-0.008;entryY=0.106;entryDx=0;entryDy=0;entryPerimeter=0;" edge="1" parent="1" source="JfV7Oqde7IpRAIplU1kL-15" target="JfV7Oqde7IpRAIplU1kL-27">
          <mxGeometry relative="1" as="geometry">
            <Array as="points">
              <mxPoint x="160" y="140" />
              <mxPoint x="343" y="140" />
            </Array>
          </mxGeometry>
        </mxCell>
      </root>
    </mxGraphModel>
  </diagram>
</mxfile>
